<svg width="1784" height="466" viewBox="0 0 1784 466" fill="none" xmlns="http://www.w3.org/2000/svg">
<g id="hourly_frame">
<rect width="1784" height="466" rx="55" fill="white"/>
<path id="Border_Top" d="M50.4385 100.502L1744 100.89" stroke="black"/>
<path id="Border_Bottom" d="M44 397L1744 395.927" stroke="black"/>
<g id="Decorations">
<path id="Clock_Body" d="M122 43.5C131.665 43.5 139.5 51.335 139.5 61C139.5 70.665 131.665 78.5 122 78.5C112.335 78.5 104.5 70.665 104.5 61C104.5 51.335 112.335 43.5 122 43.5Z" stroke="#737373" stroke-width="5"/>
<path id="Clock_Hand" d="M123 62V50" stroke="#737373" stroke-width="2"/>
<path id="Clock_Hand_2" d="M124 62H115" stroke="#737373" stroke-width="2"/>
<path id="Hourly Forecast" d="M162 75.5V45.5C162 43.85 163.25 42.65 164.95 42.65C166.6 42.65 167.8 43.85 167.8 45.5V57.55H184.8V45.5C184.8 43.85 186.05 42.65 187.75 42.65C189.4 42.65 190.6 43.85 190.6 45.5V75.5C190.6 77.15 189.35 78.35 187.65 78.35C186 78.35 184.8 77.15 184.8 75.5V62.8H167.8V75.5C167.8 77.15 166.55 78.35 164.85 78.35C163.2 78.35 162 77.15 162 75.5ZM196.721 65.5C196.721 57.95 202.521 52.4 210.121 52.4C217.721 52.4 223.521 57.95 223.521 65.5C223.521 73.05 217.721 78.6 210.121 78.6C202.521 78.6 196.721 73.05 196.721 65.5ZM218.021 65.5C218.021 61 214.721 57.5 210.121 57.5C205.521 57.5 202.221 61 202.221 65.5C202.221 70 205.521 73.5 210.121 73.5C214.721 73.5 218.021 70 218.021 65.5ZM228.627 55.35C228.627 53.8 229.777 52.65 231.377 52.65C232.977 52.65 234.127 53.8 234.127 55.35V67.15C234.127 71.2 236.527 73.4 240.027 73.4C243.777 73.4 246.527 70.9 246.527 66.45V55.35C246.527 53.8 247.677 52.65 249.277 52.65C250.877 52.65 252.027 53.8 252.027 55.35V75.65C252.027 77.2 250.877 78.35 249.277 78.35C247.677 78.35 246.527 77.2 246.527 75.65V74.55C245.077 77.15 241.877 78.6 238.577 78.6C232.927 78.6 228.627 74.7 228.627 67.35V55.35ZM258.516 75.65V55.35C258.516 53.8 259.716 52.65 261.316 52.65C262.866 52.65 264.066 53.8 264.066 55.35V56.85C264.866 54.65 267.316 52.4 271.166 52.4C273.066 52.4 275.316 53.2 274.916 55.6C274.666 57 273.316 57.95 271.916 57.7C271.466 57.6 270.566 57.6 270.466 57.6C267.066 57.6 264.016 60.25 264.016 64.45V75.65C264.016 77.2 262.816 78.35 261.216 78.35C259.666 78.35 258.516 77.2 258.516 75.65ZM278.193 75.65V45.35C278.193 43.8 279.343 42.65 280.993 42.65C282.543 42.65 283.693 43.8 283.693 45.35V75.65C283.693 77.2 282.543 78.35 280.893 78.35C279.343 78.35 278.193 77.2 278.193 75.65ZM310.905 56.3L299.105 87C298.705 88.05 297.755 88.7 296.655 88.7C296.305 88.7 295.905 88.65 295.555 88.5C294.155 87.95 293.455 86.45 294.005 85.05L296.805 77.8L288.155 56.4C287.605 55 288.255 53.45 289.755 52.85C290.105 52.7 290.405 52.65 290.755 52.65C291.805 52.65 292.805 53.3 293.205 54.4L299.655 71.7L305.855 54.4C306.255 53.3 307.205 52.65 308.255 52.65C308.605 52.65 309.005 52.7 309.355 52.85C310.755 53.4 311.455 54.9 310.905 56.3ZM345.575 63.4H333.425V75.5C333.425 77.15 332.175 78.35 330.475 78.35C328.825 78.35 327.625 77.15 327.625 75.5V45.9C327.625 44.25 328.875 43 330.525 43H347.325C348.825 43 349.925 44.1 349.925 45.65C349.925 47.15 348.825 48.25 347.325 48.25H333.425V58.25H345.575C347.025 58.25 348.125 59.35 348.125 60.85C348.125 62.3 347.025 63.4 345.575 63.4ZM353.459 65.5C353.459 57.95 359.259 52.4 366.859 52.4C374.459 52.4 380.259 57.95 380.259 65.5C380.259 73.05 374.459 78.6 366.859 78.6C359.259 78.6 353.459 73.05 353.459 65.5ZM374.759 65.5C374.759 61 371.459 57.5 366.859 57.5C362.259 57.5 358.959 61 358.959 65.5C358.959 70 362.259 73.5 366.859 73.5C371.459 73.5 374.759 70 374.759 65.5ZM385.615 75.65V55.35C385.615 53.8 386.815 52.65 388.415 52.65C389.965 52.65 391.165 53.8 391.165 55.35V56.85C391.965 54.65 394.415 52.4 398.265 52.4C400.165 52.4 402.415 53.2 402.015 55.6C401.765 57 400.415 57.95 399.015 57.7C398.565 57.6 397.665 57.6 397.565 57.6C394.165 57.6 391.115 60.25 391.115 64.45V75.65C391.115 77.2 389.915 78.35 388.315 78.35C386.765 78.35 385.615 77.2 385.615 75.65ZM425.323 66.8H408.373C408.673 71 411.723 73.9 415.673 73.9C418.373 73.9 420.373 73.1 422.323 71.25C422.773 70.85 423.273 70.65 423.823 70.65C424.523 70.65 425.223 70.95 425.673 71.5C426.523 72.5 426.373 73.95 425.423 74.85C423.073 77.2 419.923 78.6 415.673 78.6C408.273 78.6 402.873 73.1 402.873 65.5C402.873 57.9 408.173 52.4 415.473 52.4C422.223 52.4 427.273 57.15 427.973 64.05C428.123 65.55 426.973 66.8 425.323 66.8ZM422.573 63.1C421.973 59.4 418.973 57 415.473 57C411.973 57 408.973 59.4 408.373 63.1H422.573ZM445.619 78.6C437.869 78.6 432.219 73.1 432.219 65.5C432.219 57.9 437.869 52.4 445.619 52.4C449.869 52.4 453.569 54.2 455.869 56.9C456.819 58.05 456.719 59.85 455.619 60.75C455.119 61.15 454.519 61.35 453.919 61.35C453.169 61.35 452.419 61.05 451.869 60.4C450.519 58.7 448.269 57.5 445.619 57.5C441.069 57.5 437.719 60.8 437.719 65.5C437.719 70.2 441.069 73.5 445.619 73.5C448.269 73.5 450.519 72.3 451.869 70.6C452.419 69.95 453.169 69.65 453.919 69.65C454.519 69.65 455.119 69.85 455.619 70.25C456.719 71.15 456.819 72.95 455.869 74.1C453.569 76.8 449.869 78.6 445.619 78.6ZM481.991 75.65V74.6C479.791 77.1 476.591 78.6 472.841 78.6C465.641 78.6 460.491 73.1 460.491 65.5C460.491 57.9 465.641 52.4 472.841 52.4C476.591 52.4 479.791 53.9 481.991 56.4V55.35C481.991 53.8 483.141 52.65 484.741 52.65C486.341 52.65 487.491 53.8 487.491 55.35V75.65C487.491 77.2 486.341 78.35 484.741 78.35C483.141 78.35 481.991 77.2 481.991 75.65ZM481.991 65.5C481.991 60.9 478.591 57.4 473.991 57.4C469.391 57.4 465.991 60.9 465.991 65.5C465.991 70.1 469.391 73.6 473.991 73.6C478.591 73.6 481.991 70.1 481.991 65.5ZM501.914 74.2C503.914 74.2 506.114 73.2 506.114 70.95C506.114 65.85 492.514 70.5 492.514 60.2C492.514 54.7 497.414 52.4 501.964 52.4C504.514 52.4 506.764 53 508.964 54.25C510.064 54.85 510.464 56.3 509.814 57.4C509.414 58.15 508.664 58.55 507.914 58.55C507.514 58.55 507.064 58.4 506.714 58.2C505.314 57.35 503.614 56.8 501.964 56.8C500.114 56.8 498.014 57.9 498.014 60C498.014 65.1 511.614 60.45 511.614 70.75C511.614 76.35 506.664 78.6 501.914 78.6C498.964 78.6 496.014 77.65 493.664 76.2C492.464 75.5 492.164 73.9 492.964 72.8C493.414 72.2 494.114 71.85 494.814 71.85C495.314 71.85 495.814 72.05 496.214 72.35C497.964 73.6 499.964 74.2 501.914 74.2ZM517.119 53H520.069V48.2C520.069 46.65 521.219 45.5 522.869 45.5C524.419 45.5 525.569 46.65 525.569 48.2V53H529.319C530.769 53 531.819 54.1 531.819 55.6C531.819 57.05 530.769 58.1 529.319 58.1H525.569V75.65C525.569 77.2 524.419 78.35 522.769 78.35C521.219 78.35 520.069 77.2 520.069 75.65V58.1H517.119C515.669 58.1 514.619 57 514.619 55.5C514.619 54.05 515.669 53 517.119 53Z" fill="#737373"/>
</g>
</g>
</svg>
